<svg width="1049" height="115" viewBox="0 0 1049 115" fill="none" xmlns="http://www.w3.org/2000/svg">
<rect y="18" width="1049" height="79" fill="white"/>
<path d="M353.423 71.9442H348.226L363.257 31.0101H368.373L383.404 71.9442H378.207L365.975 37.486H365.655L353.423 71.9442ZM355.342 55.9543H376.288V60.3515H355.342V55.9543ZM402.162 71.9442V31.0101H406.879V46.1206H407.279C407.626 45.5876 408.105 44.908 408.718 44.0818C409.345 43.2424 410.237 42.4962 411.397 41.8433C412.569 41.177 414.155 40.8439 416.154 40.8439C418.739 40.8439 421.017 41.4902 422.989 42.7827C424.961 44.0752 426.5 45.9074 427.606 48.2792C428.712 50.651 429.265 53.4493 429.265 56.6739C429.265 59.9252 428.712 62.7434 427.606 65.1285C426.5 67.5004 424.968 69.3392 423.009 70.645C421.051 71.9376 418.792 72.5838 416.234 72.5838C414.261 72.5838 412.682 72.2573 411.497 71.6044C410.311 70.9382 409.398 70.1853 408.758 69.3459C408.119 68.4931 407.626 67.7868 407.279 67.2272H406.72V71.9442H402.162ZM406.8 56.5939C406.8 58.9125 407.139 60.9578 407.819 62.73C408.498 64.4889 409.491 65.8681 410.797 66.8674C412.103 67.8535 413.702 68.3465 415.594 68.3465C417.566 68.3465 419.212 67.8268 420.531 66.7875C421.863 65.7348 422.863 64.3224 423.529 62.5502C424.209 60.7646 424.548 58.7792 424.548 56.5939C424.548 54.4353 424.215 52.4899 423.549 50.7576C422.896 49.0121 421.903 47.6329 420.571 46.6202C419.252 45.5942 417.593 45.0812 415.594 45.0812C413.675 45.0812 412.063 45.5676 410.757 46.5403C409.451 47.4997 408.465 48.8455 407.799 50.5777C407.133 52.2966 406.8 54.302 406.8 56.5939ZM461.335 72.5838C458.564 72.5838 456.132 71.9242 454.04 70.6051C451.961 69.2859 450.336 67.4404 449.163 65.0686C448.004 62.6967 447.424 59.9252 447.424 56.7538C447.424 53.5558 448.004 50.7643 449.163 48.3791C450.336 45.994 451.961 44.1418 454.04 42.8226C456.132 41.5035 458.564 40.8439 461.335 40.8439C464.107 40.8439 466.532 41.5035 468.611 42.8226C470.703 44.1418 472.328 45.994 473.488 48.3791C474.66 50.7643 475.247 53.5558 475.247 56.7538C475.247 59.9252 474.66 62.6967 473.488 65.0686C472.328 67.4404 470.703 69.2859 468.611 70.6051C466.532 71.9242 464.107 72.5838 461.335 72.5838ZM461.335 68.3465C463.441 68.3465 465.173 67.8068 466.532 66.7275C467.891 65.6482 468.897 64.2291 469.55 62.4702C470.203 60.7113 470.53 58.8059 470.53 56.7538C470.53 54.7018 470.203 52.7897 469.55 51.0175C468.897 49.2452 467.891 47.8128 466.532 46.7202C465.173 45.6275 463.441 45.0812 461.335 45.0812C459.23 45.0812 457.498 45.6275 456.139 46.7202C454.78 47.8128 453.774 49.2452 453.121 51.0175C452.468 52.7897 452.141 54.7018 452.141 56.7538C452.141 58.8059 452.468 60.7113 453.121 62.4702C453.774 64.2291 454.78 65.6482 456.139 66.7275C457.498 67.8068 459.23 68.3465 461.335 68.3465ZM514.177 59.3922V41.2436H518.894V71.9442H514.177V66.7475H513.858C513.138 68.3065 512.019 69.6323 510.5 70.725C508.981 71.8043 507.062 72.344 504.743 72.344C502.825 72.344 501.119 71.9242 499.627 71.0848C498.134 70.232 496.962 68.9528 496.109 67.2472C495.256 65.5283 494.83 63.363 494.83 60.7513V41.2436H499.547V60.4315C499.547 62.6701 500.173 64.4556 501.425 65.7881C502.691 67.1206 504.304 67.7868 506.262 67.7868C507.435 67.7868 508.628 67.487 509.84 66.8874C511.066 66.2878 512.092 65.3684 512.918 64.1292C513.758 62.8899 514.177 61.3109 514.177 59.3922ZM553.268 41.2436V45.2411H537.358V41.2436H553.268ZM541.995 33.8883H546.712V63.1498C546.712 64.4823 546.905 65.4816 547.292 66.1479C547.692 66.8008 548.198 67.2405 548.811 67.467C549.437 67.6802 550.097 67.7868 550.79 67.7868C551.309 67.7868 551.736 67.7602 552.069 67.7069C552.402 67.6403 552.668 67.587 552.868 67.547L553.828 71.7843C553.508 71.9042 553.062 72.0242 552.489 72.1441C551.916 72.2773 551.189 72.344 550.31 72.344C548.977 72.344 547.672 72.0575 546.392 71.4845C545.127 70.9115 544.074 70.0388 543.234 68.8662C542.408 67.6936 541.995 66.2145 541.995 64.429V33.8883ZM628.461 31.0101H633.418V58.113C633.418 60.9112 632.759 63.4096 631.439 65.6082C630.134 67.7935 628.288 69.5191 625.903 70.7849C623.518 72.0375 620.719 72.6638 617.508 72.6638C614.297 72.6638 611.499 72.0375 609.113 70.7849C606.728 69.5191 604.876 67.7935 603.557 65.6082C602.251 63.4096 601.598 60.9112 601.598 58.113V31.0101H606.555V57.7132C606.555 59.712 606.995 61.4908 607.874 63.0498C608.754 64.5955 610.006 65.8148 611.632 66.7075C613.271 67.587 615.23 68.0267 617.508 68.0267C619.787 68.0267 621.746 67.587 623.384 66.7075C625.023 65.8148 626.276 64.5955 627.142 63.0498C628.022 61.4908 628.461 59.712 628.461 57.7132V31.0101ZM676.806 48.1193L672.569 49.3185C672.302 48.6123 671.909 47.9261 671.389 47.2598C670.883 46.5803 670.19 46.0206 669.311 45.5809C668.431 45.1412 667.305 44.9213 665.933 44.9213C664.054 44.9213 662.488 45.3544 661.236 46.2205C659.997 47.0733 659.377 48.1593 659.377 49.4784C659.377 50.651 659.803 51.5771 660.656 52.2567C661.509 52.9362 662.842 53.5026 664.654 53.9556L669.211 55.0749C671.956 55.7411 674.001 56.7605 675.347 58.133C676.693 59.4921 677.366 61.2443 677.366 63.3896C677.366 65.1485 676.859 66.7209 675.847 68.1066C674.847 69.4924 673.448 70.5851 671.649 71.3846C669.85 72.1841 667.758 72.5838 665.373 72.5838C662.242 72.5838 659.65 71.9042 657.598 70.5451C655.546 69.186 654.247 67.2005 653.701 64.5889L658.178 63.4696C658.604 65.1219 659.41 66.3611 660.596 67.1872C661.796 68.0134 663.361 68.4264 665.293 68.4264C667.492 68.4264 669.238 67.9601 670.53 67.0273C671.836 66.0813 672.489 64.9486 672.489 63.6295C672.489 62.5635 672.116 61.6707 671.37 60.9512C670.623 60.2183 669.477 59.672 667.932 59.3122L662.815 58.113C660.003 57.4467 657.938 56.414 656.619 55.0149C655.313 53.6025 654.66 51.8369 654.66 49.7183C654.66 47.986 655.146 46.4537 656.119 45.1212C657.105 43.7887 658.444 42.7427 660.137 41.9832C661.842 41.2237 663.774 40.8439 665.933 40.8439C668.971 40.8439 671.356 41.5101 673.088 42.8426C674.834 44.1751 676.073 45.934 676.806 48.1193Z" fill="black"/>
</svg>
