<svg width="1049" height="158" viewBox="0 0 1049 158" fill="none" xmlns="http://www.w3.org/2000/svg">
<rect y="0.0888672" width="1049" height="126.056" fill="white"/>
<path d="M256.957 85V44.0659H270.788C273.986 44.0659 276.611 44.6122 278.663 45.7049C280.715 46.7842 282.234 48.2699 283.22 50.162C284.206 52.0542 284.699 54.2062 284.699 56.618C284.699 59.0298 284.206 61.1684 283.22 63.0339C282.234 64.8994 280.722 66.3651 278.683 67.4311C276.644 68.4838 274.039 69.0101 270.868 69.0101H259.675V64.533H270.708C272.893 64.533 274.652 64.2132 275.985 63.5736C277.331 62.934 278.303 62.0279 278.903 60.8553C279.516 59.6694 279.822 58.2569 279.822 56.618C279.822 54.979 279.516 53.5466 278.903 52.3207C278.29 51.0948 277.311 50.1487 275.965 49.4825C274.619 48.8029 272.84 48.4631 270.628 48.4631H261.914V85H256.957ZM276.225 66.6116L286.298 85H280.542L270.628 66.6116H276.225ZM313.736 85.7195C311.791 85.7195 310.025 85.3531 308.44 84.6202C306.854 83.874 305.595 82.8014 304.662 81.4023C303.729 79.9898 303.263 78.2842 303.263 76.2855C303.263 74.5266 303.609 73.1009 304.302 72.0082C304.995 70.9023 305.921 70.0361 307.081 69.4099C308.24 68.7836 309.519 68.3172 310.918 68.0108C312.331 67.691 313.75 67.4378 315.175 67.2512C317.041 67.0114 318.553 66.8315 319.713 66.7116C320.885 66.5783 321.738 66.3585 322.271 66.052C322.817 65.7455 323.09 65.2125 323.09 64.453V64.2931C323.09 62.321 322.551 60.7887 321.471 59.696C320.405 58.6034 318.786 58.057 316.615 58.057C314.363 58.057 312.597 58.5501 311.318 59.5361C310.039 60.5222 309.139 61.5748 308.62 62.6941L304.142 61.0951C304.942 59.2296 306.008 57.7772 307.34 56.7379C308.686 55.6852 310.152 54.9523 311.738 54.5393C313.337 54.1129 314.909 53.8997 316.455 53.8997C317.441 53.8997 318.573 54.0196 319.852 54.2595C321.145 54.486 322.391 54.959 323.59 55.6786C324.803 56.3981 325.809 57.4841 326.608 58.9365C327.408 60.3889 327.807 62.3343 327.807 64.7728V85H323.09V80.8426H322.851C322.531 81.5089 321.998 82.2218 321.252 82.9813C320.505 83.7408 319.513 84.3871 318.273 84.9201C317.034 85.453 315.522 85.7195 313.736 85.7195ZM314.456 81.4822C316.321 81.4822 317.894 81.1158 319.173 80.3829C320.465 79.6501 321.438 78.704 322.091 77.5447C322.757 76.3855 323.09 75.1662 323.09 73.887V69.5698C322.891 69.8096 322.451 70.0295 321.771 70.2293C321.105 70.4159 320.332 70.5825 319.453 70.729C318.587 70.8623 317.74 70.9822 316.914 71.0888C316.102 71.1821 315.442 71.262 314.936 71.3287C313.71 71.4885 312.564 71.7484 311.498 72.1082C310.445 72.4546 309.592 72.9809 308.939 73.6872C308.3 74.3801 307.98 75.3261 307.98 76.5254C307.98 78.1643 308.586 79.4035 309.799 80.243C311.025 81.0692 312.577 81.4822 314.456 81.4822ZM362.151 54.2994V58.2969H346.241V54.2994H362.151ZM350.878 46.9441H355.595V76.2056C355.595 77.5381 355.788 78.5374 356.175 79.2037C356.575 79.8566 357.081 80.2963 357.694 80.5228C358.32 80.736 358.98 80.8426 359.673 80.8426C360.192 80.8426 360.619 80.816 360.952 80.7627C361.285 80.6961 361.551 80.6428 361.751 80.6028L362.711 84.8401C362.391 84.96 361.945 85.0799 361.372 85.1999C360.799 85.3331 360.072 85.3997 359.193 85.3997C357.86 85.3997 356.555 85.1133 355.275 84.5403C354.01 83.9673 352.957 83.0945 352.117 81.9219C351.291 80.7494 350.878 79.2703 350.878 77.4848V46.9441ZM381.629 85V54.2994H386.346V85H381.629ZM384.028 49.1827C383.108 49.1827 382.315 48.8695 381.649 48.2433C380.996 47.617 380.67 46.8641 380.67 45.9847C380.67 45.1052 380.996 44.3524 381.649 43.7261C382.315 43.0998 383.108 42.7867 384.028 42.7867C384.947 42.7867 385.733 43.0998 386.386 43.7261C387.052 44.3524 387.386 45.1052 387.386 45.9847C387.386 46.8641 387.052 47.617 386.386 48.2433C385.733 48.8695 384.947 49.1827 384.028 49.1827ZM412.085 66.5317V85H407.368V54.2994H411.925V59.0964H412.325C413.045 57.5374 414.137 56.2848 415.603 55.3388C417.069 54.3794 418.961 53.8997 421.279 53.8997C423.358 53.8997 425.177 54.3261 426.736 55.1789C428.295 56.0183 429.508 57.2975 430.374 59.0164C431.24 60.722 431.673 62.8807 431.673 65.4923V85H426.956V65.8121C426.956 63.4003 426.33 61.5215 425.077 60.1757C423.825 58.8166 422.106 58.137 419.92 58.137C418.415 58.137 417.069 58.4635 415.883 59.1164C414.71 59.7693 413.784 60.722 413.105 61.9746C412.425 63.2271 412.085 64.7461 412.085 66.5317ZM465.067 97.1523C462.789 97.1523 460.83 96.8592 459.191 96.2729C457.552 95.6999 456.186 94.9404 455.093 93.9943C454.014 93.0616 453.155 92.0622 452.515 90.9962L456.273 88.3579C456.699 88.9175 457.239 89.5571 457.892 90.2767C458.545 91.0095 459.437 91.6425 460.57 92.1755C461.716 92.7218 463.215 92.9949 465.067 92.9949C467.546 92.9949 469.591 92.3953 471.203 91.1961C472.816 89.9968 473.622 88.118 473.622 85.5596V79.3236H473.222C472.876 79.8832 472.383 80.5761 471.743 81.4023C471.117 82.2151 470.211 82.9413 469.025 83.5809C467.852 84.2072 466.266 84.5203 464.268 84.5203C461.789 84.5203 459.564 83.934 457.592 82.7614C455.633 81.5888 454.081 79.8832 452.935 77.6447C451.802 75.4061 451.236 72.6878 451.236 69.4898C451.236 66.3451 451.789 63.6069 452.895 61.275C454.001 58.9298 455.54 57.1176 457.512 55.8385C459.484 54.5459 461.763 53.8997 464.348 53.8997C466.346 53.8997 467.932 54.2328 469.105 54.899C470.291 55.552 471.197 56.2982 471.823 57.1376C472.462 57.9638 472.956 58.6433 473.302 59.1763H473.782V54.2994H478.339V85.8794C478.339 88.5178 477.739 90.6631 476.54 92.3154C475.354 93.981 473.755 95.2002 471.743 95.9731C469.744 96.7592 467.519 97.1523 465.067 97.1523ZM464.907 80.283C466.799 80.283 468.398 79.8499 469.704 78.9838C471.01 78.1177 472.003 76.8718 472.682 75.2462C473.362 73.6205 473.702 71.6751 473.702 69.4099C473.702 67.1979 473.369 65.2458 472.702 63.5536C472.036 61.8613 471.05 60.5355 469.744 59.5761C468.438 58.6167 466.826 58.137 464.907 58.137C462.909 58.137 461.243 58.6433 459.91 59.656C458.591 60.6687 457.599 62.0279 456.932 63.7335C456.279 65.439 455.953 67.3312 455.953 69.4099C455.953 71.5418 456.286 73.4273 456.952 75.0663C457.632 76.6919 458.631 77.9711 459.95 78.9039C461.283 79.8233 462.935 80.283 464.907 80.283ZM550.594 54.2994C550.354 52.274 549.381 50.7017 547.676 49.5824C545.97 48.4631 543.878 47.9035 541.4 47.9035C539.587 47.9035 538.002 48.1966 536.643 48.7829C535.297 49.3692 534.244 50.1754 533.485 51.2014C532.738 52.2274 532.365 53.3933 532.365 54.6992C532.365 55.7918 532.625 56.7312 533.145 57.5174C533.678 58.2902 534.357 58.9365 535.184 59.4562C536.01 59.9625 536.876 60.3822 537.782 60.7154C538.688 61.0352 539.521 61.295 540.28 61.4949L544.438 62.6142C545.504 62.894 546.69 63.2804 547.995 63.7734C549.315 64.2665 550.574 64.9394 551.773 65.7922C552.986 66.6316 553.985 67.7109 554.771 69.0301C555.557 70.3493 555.95 71.9682 555.95 73.887C555.95 76.099 555.371 78.0977 554.212 79.8832C553.066 81.6688 551.387 83.0879 549.175 84.1405C546.976 85.1932 544.304 85.7195 541.16 85.7195C538.228 85.7195 535.69 85.2465 533.545 84.3004C531.413 83.3544 529.734 82.0352 528.508 80.3429C527.295 78.6507 526.609 76.6853 526.449 74.4467H531.566C531.699 75.9924 532.219 77.2716 533.125 78.2842C534.044 79.2836 535.204 80.0298 536.603 80.5228C538.015 81.0025 539.534 81.2424 541.16 81.2424C543.052 81.2424 544.751 80.9359 546.257 80.323C547.762 79.6967 548.955 78.8306 549.834 77.7246C550.714 76.6053 551.153 75.2995 551.153 73.8071C551.153 72.4479 550.774 71.342 550.014 70.4892C549.255 69.6364 548.255 68.9435 547.016 68.4105C545.777 67.8775 544.438 67.4111 542.999 67.0114L537.962 65.5723C534.764 64.6529 532.232 63.3404 530.367 61.6348C528.501 59.9292 527.568 57.6973 527.568 54.939C527.568 52.6471 528.188 50.6484 529.427 48.9428C530.68 47.2239 532.359 45.8914 534.464 44.9453C536.583 43.986 538.948 43.5063 541.56 43.5063C544.198 43.5063 546.543 43.9793 548.595 44.9254C550.647 45.8581 552.273 47.1373 553.472 48.7629C554.685 50.3886 555.324 52.2341 555.391 54.2994H550.594ZM578.881 96.5127C578.082 96.5127 577.369 96.4461 576.743 96.3128C576.116 96.1929 575.683 96.073 575.444 95.9531L576.643 91.7957C577.789 92.0888 578.801 92.1954 579.681 92.1155C580.56 92.0355 581.34 91.6425 582.019 90.9362C582.712 90.2433 583.345 89.1174 583.918 87.5584L584.798 85.1599L573.445 54.2994H578.562L587.036 78.7639H587.356L595.831 54.2994H600.947L587.916 89.4772C587.329 91.0628 586.603 92.3753 585.737 93.4147C584.871 94.4673 583.865 95.2468 582.719 95.7532C581.586 96.2595 580.307 96.5127 578.881 96.5127ZM641.302 61.1751L637.065 62.3743C636.798 61.6681 636.405 60.9819 635.886 60.3156C635.379 59.6361 634.686 59.0764 633.807 58.6367C632.928 58.197 631.802 57.9771 630.429 57.9771C628.55 57.9771 626.985 58.4102 625.732 59.2763C624.493 60.1291 623.873 61.2151 623.873 62.5342C623.873 63.7068 624.3 64.6329 625.152 65.3125C626.005 65.992 627.338 66.5583 629.15 67.0114L633.707 68.1307C636.452 68.7969 638.497 69.8163 639.843 71.1887C641.189 72.5479 641.862 74.3001 641.862 76.4454C641.862 78.2043 641.356 79.7766 640.343 81.1624C639.343 82.5482 637.944 83.6409 636.146 84.4404C634.347 85.2398 632.255 85.6396 629.869 85.6396C626.738 85.6396 624.146 84.96 622.094 83.6009C620.042 82.2417 618.743 80.2563 618.197 77.6447L622.674 76.5254C623.1 78.1777 623.907 79.4169 625.093 80.243C626.292 81.0692 627.857 81.4822 629.79 81.4822C631.988 81.4822 633.734 81.0159 635.026 80.0831C636.332 79.137 636.985 78.0044 636.985 76.6853C636.985 75.6193 636.612 74.7265 635.866 74.007C635.119 73.2741 633.974 72.7278 632.428 72.368L627.311 71.1688C624.5 70.5025 622.434 69.4698 621.115 68.0707C619.809 66.6583 619.156 64.8927 619.156 62.7741C619.156 61.0418 619.643 59.5095 620.615 58.177C621.601 56.8445 622.941 55.7985 624.633 55.039C626.338 54.2794 628.27 53.8997 630.429 53.8997C633.467 53.8997 635.852 54.5659 637.585 55.8984C639.33 57.2309 640.569 58.9898 641.302 61.1751ZM674.696 54.2994V58.2969H658.787V54.2994H674.696ZM663.424 46.9441H668.141V76.2056C668.141 77.5381 668.334 78.5374 668.72 79.2037C669.12 79.8566 669.626 80.2963 670.239 80.5228C670.866 80.736 671.525 80.8426 672.218 80.8426C672.738 80.8426 673.164 80.816 673.497 80.7627C673.83 80.6961 674.097 80.6428 674.297 80.6028L675.256 84.8401C674.936 84.96 674.49 85.0799 673.917 85.1999C673.344 85.3331 672.618 85.3997 671.738 85.3997C670.406 85.3997 669.1 85.1133 667.821 84.5403C666.555 83.9673 665.502 83.0945 664.663 81.9219C663.837 80.7494 663.424 79.2703 663.424 77.4848V46.9441ZM706.717 85.6396C703.759 85.6396 701.207 84.9867 699.061 83.6808C696.93 82.3617 695.284 80.5228 694.125 78.1643C692.979 75.7925 692.406 73.0342 692.406 69.8896C692.406 66.7449 692.979 63.9733 694.125 61.5748C695.284 59.163 696.896 57.2842 698.962 55.9384C701.04 54.5793 703.465 53.8997 706.237 53.8997C707.836 53.8997 709.415 54.1662 710.974 54.6992C712.533 55.2322 713.952 56.0983 715.231 57.2975C716.51 58.4834 717.53 60.0558 718.289 62.0145C719.049 63.9733 719.429 66.3851 719.429 69.25V71.2487H695.764V67.1713H714.632C714.632 65.439 714.285 63.8934 713.592 62.5342C712.913 61.1751 711.94 60.1024 710.674 59.3163C709.422 58.5301 707.943 58.137 706.237 58.137C704.358 58.137 702.733 58.6034 701.36 59.5361C700.001 60.4555 698.955 61.6548 698.222 63.1338C697.489 64.6129 697.123 66.1986 697.123 67.8908V70.6091C697.123 72.9276 697.522 74.8931 698.322 76.5054C699.135 78.1044 700.261 79.3236 701.7 80.1631C703.139 80.9892 704.811 81.4023 706.717 81.4023C707.956 81.4023 709.075 81.2291 710.075 80.8826C711.087 80.5228 711.96 79.9898 712.693 79.2836C713.426 78.5641 713.992 77.6713 714.392 76.6053L718.949 77.8845C718.469 79.4302 717.663 80.7893 716.53 81.9619C715.398 83.1212 713.999 84.0273 712.333 84.6802C710.667 85.3198 708.795 85.6396 706.717 85.6396ZM738.987 85V54.2994H743.544V59.0964H743.943C744.583 57.4574 745.616 56.1849 747.042 55.2788C748.467 54.3594 750.18 53.8997 752.178 53.8997C754.204 53.8997 755.889 54.3594 757.235 55.2788C758.594 56.1849 759.654 57.4574 760.413 59.0964H760.733C761.519 57.5107 762.698 56.2515 764.271 55.3188C765.843 54.3727 767.728 53.8997 769.927 53.8997C772.672 53.8997 774.917 54.7591 776.663 56.478C778.408 58.1836 779.281 60.842 779.281 64.453V85H774.564V64.453C774.564 62.1878 773.944 60.5688 772.705 59.5961C771.466 58.6234 770.007 58.137 768.328 58.137C766.169 58.137 764.497 58.7899 763.311 60.0958C762.125 61.3883 761.532 63.0272 761.532 65.0126V85H756.735V63.9733C756.735 62.2277 756.169 60.822 755.036 59.756C753.904 58.6767 752.445 58.137 750.659 58.137C749.433 58.137 748.287 58.4635 747.221 59.1164C746.169 59.7693 745.316 60.6754 744.663 61.8347C744.023 62.9806 743.704 64.3064 743.704 65.8121V85H738.987Z" fill="black"/>
</svg>
