<svg width="681" height="44" viewBox="0 0 681 44" fill="none" xmlns="http://www.w3.org/2000/svg">
<g clip-path="url(#clip0_16_2)">
<path d="M317.011 21.8353L335.844 13.7243L335.961 29.6499L317.011 21.8353Z" fill="white"/>
<path d="M314.953 6.23808C314.953 9.6799 312.249 12.47 308.913 12.47C305.577 12.47 302.872 9.6799 302.872 6.23808C302.872 2.79627 305.577 0.00613403 308.913 0.00613403C312.249 0.00613403 314.953 2.79627 314.953 6.23808Z" fill="white"/>
<path d="M327.033 6.23195C327.033 9.67375 324.329 12.4639 320.993 12.4639C317.657 12.4639 314.953 9.67375 314.953 6.23195C314.953 2.79014 317.657 0 320.993 0C324.329 0 327.033 2.79014 327.033 6.23195Z" fill="white"/>
<path d="M312.343 37.0452C311.322 35.5986 313.464 32.1937 317.128 29.4401C320.792 26.6864 324.59 25.6269 325.611 27.0734C326.239 29.2068 327.033 29.9845 320.826 34.6785C317.162 37.4321 313.364 38.4917 312.343 37.0452Z" fill="white"/>
<path d="M288.999 35.9831C287.78 34.7099 289.406 31.0134 292.631 27.7267C295.856 24.4399 299.459 22.8076 300.677 24.0807C301.897 25.3539 300.27 29.0505 297.046 32.3373C293.821 35.624 290.218 37.2563 288.999 35.9831Z" fill="white"/>
<path d="M291.263 24.7208C293.338 22.4985 294.172 19.181 296.175 16.8891C299.296 13.3167 306.361 11.7354 313.844 12.4431H318.283C324.666 12.4431 326.072 12.6838 326.072 19.2695V28.6883C326.072 30.0723 324.984 31.1942 323.643 31.1942H290.645C289.503 31.1942 288.524 30.4805 288.102 29.4621C287.821 28.7835 288.158 28.0458 288.654 27.5144L291.263 24.7208Z" fill="white"/>
</g>
<rect x="288.12" y="0.11984" width="47.7213" height="37.4527" stroke="black" stroke-width="0.23968"/>
<path d="M91.5584 11.6307V8.81818H111.195V11.6307H102.962V35H99.7914V11.6307H91.5584ZM136.542 26.9716V15.3636H139.559V35H136.542V31.6761H136.337C135.877 32.6733 135.161 33.5213 134.19 34.2202C133.218 34.9105 131.991 35.2557 130.508 35.2557C129.281 35.2557 128.19 34.9872 127.235 34.4503C126.281 33.9048 125.531 33.0866 124.985 31.9957C124.44 30.8963 124.167 29.5114 124.167 27.8409V15.3636H127.184V27.6364C127.184 29.0682 127.585 30.2102 128.386 31.0625C129.195 31.9148 130.227 32.3409 131.479 32.3409C132.229 32.3409 132.992 32.1491 133.768 31.7656C134.552 31.3821 135.208 30.794 135.737 30.0014C136.273 29.2088 136.542 28.1989 136.542 26.9716ZM156.245 35V15.3636H159.16V18.3295H159.364C159.722 17.358 160.37 16.5696 161.307 15.9645C162.245 15.3594 163.302 15.0568 164.478 15.0568C164.699 15.0568 164.976 15.0611 165.309 15.0696C165.641 15.0781 165.893 15.0909 166.063 15.108V18.1761C165.961 18.1506 165.726 18.1122 165.36 18.0611C165.002 18.0014 164.623 17.9716 164.222 17.9716C163.268 17.9716 162.415 18.1719 161.665 18.5724C160.924 18.9645 160.336 19.5099 159.901 20.2088C159.475 20.8991 159.262 21.6875 159.262 22.5739V35H156.245ZM190.57 15.3636V17.9205H180.394V15.3636H190.57ZM183.359 10.6591H186.376V29.375C186.376 30.2273 186.5 30.8665 186.747 31.2926C187.003 31.7102 187.327 31.9915 187.719 32.1364C188.119 32.2727 188.541 32.3409 188.984 32.3409C189.317 32.3409 189.59 32.3239 189.803 32.2898C190.016 32.2472 190.186 32.2131 190.314 32.1875L190.928 34.8977C190.723 34.9744 190.438 35.0511 190.071 35.1278C189.705 35.2131 189.24 35.2557 188.678 35.2557C187.825 35.2557 186.99 35.0724 186.172 34.706C185.362 34.3395 184.689 33.7812 184.152 33.0312C183.624 32.2812 183.359 31.3352 183.359 30.1932V10.6591ZM209.707 8.81818V35H206.69V8.81818H209.707ZM234.626 35.4091C232.734 35.4091 231.102 34.9915 229.729 34.1562C228.366 33.3125 227.313 32.1364 226.572 30.6278C225.839 29.1108 225.472 27.3466 225.472 25.3352C225.472 23.3239 225.839 21.5511 226.572 20.017C227.313 18.4744 228.345 17.2727 229.666 16.4119C230.995 15.5426 232.546 15.108 234.319 15.108C235.342 15.108 236.352 15.2784 237.349 15.6193C238.346 15.9602 239.254 16.5142 240.072 17.2812C240.89 18.0398 241.542 19.0455 242.028 20.2983C242.514 21.5511 242.756 23.0937 242.756 24.9261V26.2045H227.62V23.5966H239.688C239.688 22.4886 239.467 21.5 239.024 20.6307C238.589 19.7614 237.967 19.0753 237.157 18.5724C236.356 18.0696 235.41 17.8182 234.319 17.8182C233.117 17.8182 232.078 18.1165 231.2 18.7131C230.33 19.3011 229.661 20.0682 229.193 21.0142C228.724 21.9602 228.489 22.9744 228.489 24.0568V25.7955C228.489 27.2784 228.745 28.5355 229.256 29.5668C229.776 30.5895 230.497 31.3693 231.417 31.9062C232.337 32.4347 233.407 32.6989 234.626 32.6989C235.418 32.6989 236.134 32.5881 236.774 32.3665C237.421 32.1364 237.979 31.7955 238.448 31.3438C238.917 30.8835 239.279 30.3125 239.535 29.6307L242.45 30.4489C242.143 31.4375 241.627 32.3068 240.903 33.0568C240.178 33.7983 239.283 34.3778 238.218 34.7955C237.153 35.2045 235.955 35.4091 234.626 35.4091ZM386.625 35V8.81818H395.472C397.517 8.81818 399.196 9.16761 400.509 9.86648C401.821 10.5568 402.793 11.5071 403.423 12.7173C404.054 13.9276 404.369 15.304 404.369 16.8466C404.369 18.3892 404.054 19.7571 403.423 20.9503C402.793 22.1435 401.825 23.081 400.521 23.7628C399.217 24.4361 397.551 24.7727 395.523 24.7727H388.364V21.9091H395.42C396.818 21.9091 397.943 21.7045 398.795 21.2955C399.656 20.8864 400.278 20.3068 400.662 19.5568C401.054 18.7983 401.25 17.8949 401.25 16.8466C401.25 15.7983 401.054 14.8821 400.662 14.098C400.27 13.3139 399.644 12.7088 398.783 12.2827C397.922 11.848 396.784 11.6307 395.369 11.6307H389.795V35H386.625ZM398.949 23.2386L405.392 35H401.71L395.369 23.2386H398.949ZM428.425 35.4091C426.533 35.4091 424.901 34.9915 423.529 34.1562C422.165 33.3125 421.113 32.1364 420.371 30.6278C419.638 29.1108 419.272 27.3466 419.272 25.3352C419.272 23.3239 419.638 21.5511 420.371 20.017C421.113 18.4744 422.144 17.2727 423.465 16.4119C424.795 15.5426 426.346 15.108 428.118 15.108C429.141 15.108 430.151 15.2784 431.148 15.6193C432.145 15.9602 433.053 16.5142 433.871 17.2812C434.69 18.0398 435.342 19.0455 435.827 20.2983C436.313 21.5511 436.556 23.0937 436.556 24.9261V26.2045H421.42V23.5966H433.488C433.488 22.4886 433.266 21.5 432.823 20.6307C432.388 19.7614 431.766 19.0753 430.957 18.5724C430.155 18.0696 429.209 17.8182 428.118 17.8182C426.917 17.8182 425.877 18.1165 424.999 18.7131C424.13 19.3011 423.461 20.0682 422.992 21.0142C422.523 21.9602 422.289 22.9744 422.289 24.0568V25.7955C422.289 27.2784 422.545 28.5355 423.056 29.5668C423.576 30.5895 424.296 31.3693 425.217 31.9062C426.137 32.4347 427.207 32.6989 428.425 32.6989C429.218 32.6989 429.934 32.5881 430.573 32.3665C431.221 32.1364 431.779 31.7955 432.248 31.3438C432.717 30.8835 433.079 30.3125 433.334 29.6307L436.249 30.4489C435.942 31.4375 435.427 32.3068 434.702 33.0568C433.978 33.7983 433.083 34.3778 432.018 34.7955C430.952 35.2045 429.755 35.4091 428.425 35.4091ZM467.765 15.3636L460.503 35H457.435L450.174 15.3636H453.446L458.867 31.0114H459.071L464.492 15.3636H467.765ZM482.907 35V15.3636H485.924V35H482.907ZM484.441 12.0909C483.853 12.0909 483.346 11.8906 482.92 11.4901C482.502 11.0895 482.293 10.608 482.293 10.0455C482.293 9.48295 482.502 9.00142 482.92 8.60085C483.346 8.20028 483.853 8 484.441 8C485.029 8 485.532 8.20028 485.95 8.60085C486.376 9.00142 486.589 9.48295 486.589 10.0455C486.589 10.608 486.376 11.0895 485.95 11.4901C485.532 11.8906 485.029 12.0909 484.441 12.0909ZM510.843 35.4091C508.951 35.4091 507.319 34.9915 505.947 34.1562C504.583 33.3125 503.53 32.1364 502.789 30.6278C502.056 29.1108 501.689 27.3466 501.689 25.3352C501.689 23.3239 502.056 21.5511 502.789 20.017C503.53 18.4744 504.562 17.2727 505.883 16.4119C507.212 15.5426 508.763 15.108 510.536 15.108C511.559 15.108 512.569 15.2784 513.566 15.6193C514.563 15.9602 515.471 16.5142 516.289 17.2812C517.107 18.0398 517.759 19.0455 518.245 20.2983C518.731 21.5511 518.974 23.0937 518.974 24.9261V26.2045H503.837V23.5966H515.905C515.905 22.4886 515.684 21.5 515.241 20.6307C514.806 19.7614 514.184 19.0753 513.374 18.5724C512.573 18.0696 511.627 17.8182 510.536 17.8182C509.334 17.8182 508.295 18.1165 507.417 18.7131C506.547 19.3011 505.878 20.0682 505.41 21.0142C504.941 21.9602 504.706 22.9744 504.706 24.0568V25.7955C504.706 27.2784 504.962 28.5355 505.474 29.5668C505.993 30.5895 506.714 31.3693 507.634 31.9062C508.554 32.4347 509.624 32.6989 510.843 32.6989C511.635 32.6989 512.351 32.5881 512.991 32.3665C513.638 32.1364 514.197 31.7955 514.665 31.3438C515.134 30.8835 515.496 30.3125 515.752 29.6307L518.667 30.4489C518.36 31.4375 517.844 32.3068 517.12 33.0568C516.395 33.7983 515.5 34.3778 514.435 34.7955C513.37 35.2045 512.172 35.4091 510.843 35.4091ZM539.172 35L533.189 15.3636H536.359L540.604 30.3977H540.808L545.001 15.3636H548.223L552.365 30.3466H552.57L556.814 15.3636H559.984L554.001 35H551.036L546.74 19.9148H546.433L542.138 35H539.172ZM589.042 19.7614L586.332 20.5284C586.161 20.0767 585.91 19.6378 585.578 19.2116C585.254 18.777 584.811 18.419 584.248 18.1378C583.686 17.8565 582.965 17.7159 582.088 17.7159C580.886 17.7159 579.884 17.9929 579.083 18.5469C578.291 19.0923 577.894 19.7869 577.894 20.6307C577.894 21.3807 578.167 21.973 578.713 22.4077C579.258 22.8423 580.11 23.2045 581.269 23.4943L584.184 24.2102C585.94 24.6364 587.248 25.2884 588.109 26.1662C588.97 27.0355 589.4 28.1562 589.4 29.5284C589.4 30.6534 589.076 31.6591 588.428 32.5455C587.789 33.4318 586.894 34.1307 585.744 34.642C584.593 35.1534 583.255 35.4091 581.73 35.4091C579.727 35.4091 578.069 34.9744 576.757 34.1051C575.444 33.2358 574.613 31.9659 574.264 30.2955L577.127 29.5795C577.4 30.6364 577.916 31.429 578.674 31.9574C579.441 32.4858 580.443 32.75 581.678 32.75C583.085 32.75 584.201 32.4517 585.028 31.8551C585.863 31.25 586.281 30.5256 586.281 29.6818C586.281 29 586.042 28.429 585.565 27.9688C585.088 27.5 584.355 27.1506 583.366 26.9205L580.093 26.1534C578.295 25.7273 576.974 25.0668 576.13 24.1719C575.295 23.2685 574.877 22.1392 574.877 20.7841C574.877 19.6761 575.188 18.696 575.811 17.8438C576.441 16.9915 577.298 16.3224 578.38 15.8366C579.471 15.3509 580.707 15.108 582.088 15.108C584.031 15.108 585.556 15.5341 586.664 16.3864C587.781 17.2386 588.573 18.3636 589.042 19.7614Z" fill="white"/>
<defs>
<clipPath id="clip0_16_2">
<rect x="288" width="47.961" height="37.6924" fill="white"/>
</clipPath>
</defs>
</svg>
