<svg width="48" height="38" viewBox="0 0 48 38" fill="none" xmlns="http://www.w3.org/2000/svg">
<g clip-path="url(#clip0_8_31)">
<path d="M29.0105 21.8353L47.8436 13.7243L47.961 29.6499L29.0105 21.8353Z" fill="white"/>
<path d="M26.9528 6.23808C26.9528 9.6799 24.2486 12.47 20.9126 12.47C17.5767 12.47 14.8725 9.6799 14.8725 6.23808C14.8725 2.79627 17.5767 0.00613403 20.9126 0.00613403C24.2486 0.00613403 26.9528 2.79627 26.9528 6.23808Z" fill="white"/>
<path d="M39.0333 6.23195C39.0333 9.67375 36.3289 12.4639 32.993 12.4639C29.6572 12.4639 26.9528 9.67375 26.9528 6.23195C26.9528 2.79014 29.6572 0 32.993 0C36.3289 0 39.0333 2.79014 39.0333 6.23195Z" fill="white"/>
<path d="M24.343 37.0452C23.3218 35.5986 25.4641 32.1937 29.1281 29.4401C32.7921 26.6864 36.5902 25.6269 37.6115 27.0734C38.2392 29.2068 39.0333 29.9845 32.8264 34.6785C29.1624 37.4321 25.3643 38.4917 24.343 37.0452Z" fill="white"/>
<path d="M0.999291 35.9831C-0.219695 34.7099 1.40638 31.0134 4.63125 27.7267C7.8561 24.4399 11.4586 22.8076 12.6775 24.0807C13.8965 25.3539 12.2705 29.0505 9.0456 32.3373C5.82072 35.624 2.21827 37.2563 0.999291 35.9831Z" fill="white"/>
<path d="M3.26294 24.7208C5.33796 22.4985 6.17225 19.181 8.17473 16.8891C11.2959 13.3167 18.361 11.7354 25.8439 12.4431H30.2828C36.6659 12.4431 38.0717 12.6838 38.0717 19.2695V28.6883C38.0717 30.0723 36.9843 31.1942 35.6429 31.1942H2.6447C1.50344 31.1942 0.523741 30.4805 0.102 29.4621C-0.178998 28.7835 0.158123 28.0458 0.654322 27.5144L3.26294 24.7208Z" fill="white"/>
</g>
<rect x="0.11984" y="0.11984" width="47.7213" height="37.4527" stroke="black" stroke-width="0.23968"/>
<defs>
<clipPath id="clip0_8_31">
<rect width="47.961" height="37.6924" fill="white"/>
</clipPath>
</defs>
</svg>
