<svg width="243" height="106" viewBox="0 0 243 106" fill="none" xmlns="http://www.w3.org/2000/svg">
<path d="M50.2344 47.1128C49.1064 47.1128 48.0661 47.1003 47.1136 47.0752C46.1861 47.0501 45.384 47.0125 44.7072 46.9624V19.8152C45.6848 19.7149 46.7501 19.6397 47.9032 19.5896C49.0813 19.5395 50.1968 19.5144 51.2496 19.5144C52.8037 19.5144 54.1824 19.6523 55.3856 19.928C56.6139 20.1787 57.6541 20.5797 58.5064 21.1312C59.3587 21.6827 59.9979 22.3845 60.424 23.2368C60.8752 24.0891 61.1008 25.1168 61.1008 26.32C61.1008 27.7488 60.6496 29.0397 59.7472 30.1928C58.8448 31.3459 57.5163 32.1355 55.7616 32.5616L56.0248 32.524C57.1277 32.7496 58.1429 33.1632 59.0704 33.7648C59.9979 34.3664 60.7248 35.1435 61.2512 36.096C61.8027 37.0235 62.0784 38.1139 62.0784 39.3672C62.0784 40.8712 61.8027 42.1245 61.2512 43.1272C60.6997 44.1299 59.8976 44.932 58.8448 45.5336C57.8171 46.1101 56.5763 46.5237 55.1224 46.7744C53.6685 47 52.0392 47.1128 50.2344 47.1128ZM51.2872 44.4432C52.2899 44.4432 53.2299 44.368 54.1072 44.2176C55.0096 44.0421 55.7867 43.7664 56.4384 43.3904C57.1152 42.9893 57.6416 42.4504 58.0176 41.7736C58.3936 41.0717 58.5816 40.1944 58.5816 39.1416C58.5816 37.4621 57.9675 36.1837 56.7392 35.3064C55.536 34.4291 53.9944 33.9904 52.1144 33.9904H48.016V44.4056C48.4672 44.4307 48.9811 44.4432 49.5576 44.4432C50.1341 44.4432 50.7107 44.4432 51.2872 44.4432ZM51.8136 31.4712C53.1171 31.4712 54.1949 31.2707 55.0472 30.8696C55.9245 30.4435 56.5763 29.8795 57.0024 29.1776C57.4536 28.4507 57.6792 27.636 57.6792 26.7336C57.6792 25.1544 57.1653 24.0013 56.1376 23.2744C55.1099 22.5224 53.6309 22.1464 51.7008 22.1464C51.024 22.1464 50.3472 22.1589 49.6704 22.184C48.9936 22.2091 48.4421 22.2467 48.016 22.2968V31.4712H51.8136ZM73.8528 47V32.9752C73.8528 31.8221 73.8402 30.8195 73.8152 29.9672C73.7901 29.0899 73.765 28.2501 73.74 27.448L76.7104 27.3352L76.9736 30.7944H77.0488C77.7506 29.6664 78.6405 28.7515 79.7184 28.0496C80.7962 27.3477 82.1498 27.0344 83.7792 27.1096V30.1176C82.3253 30.0173 81.0469 30.2304 79.944 30.7568C78.841 31.2581 77.9386 32.0728 77.2368 33.2008V47H73.8528ZM102.822 47.4136C101.569 47.4136 100.378 47.2005 99.2504 46.7744C98.1224 46.3232 97.1323 45.6715 96.28 44.8192C95.4528 43.9669 94.8011 42.9016 94.3248 41.6232C93.8485 40.3448 93.6104 38.8784 93.6104 37.224C93.6104 35.5696 93.8485 34.1032 94.3248 32.8248C94.8011 31.5464 95.4528 30.4811 96.28 29.6288C97.1323 28.7765 98.1224 28.1373 99.2504 27.7112C100.378 27.26 101.569 27.0344 102.822 27.0344C104.101 27.0344 105.291 27.26 106.394 27.7112C107.522 28.1373 108.513 28.7765 109.365 29.6288C110.217 30.4811 110.881 31.5464 111.358 32.8248C111.834 34.1032 112.072 35.5696 112.072 37.224C112.072 38.8784 111.834 40.3448 111.358 41.6232C110.881 42.9016 110.217 43.9669 109.365 44.8192C108.513 45.6715 107.522 46.3232 106.394 46.7744C105.291 47.2005 104.101 47.4136 102.822 47.4136ZM102.822 44.8568C103.8 44.8568 104.652 44.6688 105.379 44.2928C106.131 43.9168 106.733 43.3779 107.184 42.676C107.66 41.9741 108.011 41.1595 108.237 40.232C108.487 39.3045 108.613 38.3019 108.613 37.224C108.613 36.1461 108.487 35.1435 108.237 34.216C108.011 33.2885 107.66 32.4739 107.184 31.772C106.733 31.0701 106.131 30.5312 105.379 30.1552C104.652 29.7792 103.8 29.5912 102.822 29.5912C101.845 29.5912 100.993 29.7792 100.266 30.1552C99.5387 30.5312 98.9371 31.0701 98.4608 31.772C97.9845 32.4739 97.6336 33.2885 97.408 34.216C97.1824 35.1435 97.0696 36.1461 97.0696 37.224C97.0696 38.3019 97.1824 39.3045 97.408 40.232C97.6336 41.1595 97.9845 41.9741 98.4608 42.676C98.9371 43.3779 99.5387 43.9168 100.266 44.2928C100.993 44.6688 101.845 44.8568 102.822 44.8568ZM121.194 27.448H124.691L128.865 43.8792H128.902L130.557 37.9384L133.64 27.448H136.573L139.694 37.9384L141.31 43.8792H141.348L145.522 27.448H149.018L143.228 47H139.806L135.106 31.584H135.069L130.406 47H126.985L121.194 27.448ZM164.301 47.4136C163.324 47.4136 162.321 47.3008 161.293 47.0752C160.291 46.8496 159.413 46.5488 158.661 46.1728L159.15 43.8416C159.576 44.0171 160.078 44.1925 160.654 44.368C161.231 44.5184 161.832 44.6437 162.459 44.744C163.111 44.8443 163.75 44.8944 164.377 44.8944C165.68 44.8944 166.683 44.6187 167.385 44.0672C168.111 43.5157 168.475 42.7888 168.475 41.8864C168.475 41.1845 168.262 40.6205 167.836 40.1944C167.41 39.7432 166.858 39.3547 166.181 39.0288C165.53 38.6779 164.828 38.352 164.076 38.0512C163.274 37.7003 162.484 37.3117 161.707 36.8856C160.93 36.4344 160.278 35.8579 159.752 35.156C159.25 34.4541 159 33.5768 159 32.524C159 31.4211 159.275 30.4685 159.827 29.6664C160.403 28.8392 161.206 28.2 162.233 27.7488C163.261 27.2725 164.464 27.0344 165.843 27.0344C166.795 27.0344 167.723 27.1472 168.625 27.3728C169.528 27.5733 170.305 27.8365 170.957 28.1624L170.468 30.4936C170.117 30.3432 169.678 30.1928 169.152 30.0424C168.65 29.892 168.124 29.7667 167.573 29.6664C167.021 29.5661 166.457 29.516 165.881 29.516C164.702 29.516 163.8 29.7792 163.173 30.3056C162.572 30.832 162.271 31.4837 162.271 32.2608C162.271 32.8875 162.446 33.4139 162.797 33.84C163.173 34.2411 163.662 34.592 164.264 34.8928C164.89 35.1936 165.555 35.4944 166.257 35.7952C167.084 36.1211 167.923 36.5221 168.776 36.9984C169.628 37.4747 170.33 38.0763 170.881 38.8032C171.458 39.5301 171.746 40.4701 171.746 41.6232C171.746 42.7763 171.433 43.7915 170.806 44.6688C170.179 45.5461 169.302 46.2229 168.174 46.6992C167.071 47.1755 165.78 47.4136 164.301 47.4136ZM191.814 47.4136C189.683 47.4136 187.903 46.9875 186.474 46.1352C185.071 45.2579 184.018 44.0672 183.316 42.5632C182.614 41.0341 182.263 39.2795 182.263 37.2992C182.263 35.8453 182.464 34.5043 182.865 33.276C183.266 32.0477 183.842 30.9699 184.594 30.0424C185.372 29.0899 186.312 28.3504 187.414 27.824C188.517 27.2976 189.783 27.0344 191.212 27.0344C192.691 27.0344 193.944 27.3101 194.972 27.8616C196 28.388 196.814 29.14 197.416 30.1176C198.018 31.0701 198.419 32.1981 198.619 33.5016C198.845 34.8051 198.87 36.2339 198.694 37.788H184.143L185.835 36.5096C185.56 38.1389 185.61 39.5803 185.986 40.8336C186.387 42.0619 187.101 43.0395 188.129 43.7664C189.182 44.4683 190.548 44.8192 192.227 44.8192C193.305 44.8192 194.308 44.7064 195.235 44.4808C196.188 44.2552 196.965 44.0296 197.566 43.804L197.98 46.1728C197.228 46.4987 196.301 46.7869 195.198 47.0376C194.095 47.2883 192.967 47.4136 191.814 47.4136ZM184.181 35.8328H195.724C195.749 35.7075 195.762 35.5947 195.762 35.4944C195.762 35.3941 195.762 35.3064 195.762 35.2312C195.762 34.0531 195.586 33.0379 195.235 32.1856C194.884 31.3083 194.37 30.6315 193.694 30.1552C193.017 29.6789 192.152 29.4408 191.099 29.4408C189.871 29.4408 188.831 29.7917 187.978 30.4936C187.151 31.1704 186.537 32.0728 186.136 33.2008C185.735 34.3288 185.572 35.5195 185.647 36.7728L184.181 35.8328Z" fill="white"/>
<path d="M102.201 72.3083H124H141.799L122 91.9222L102.201 72.3083Z" fill="white"/>
<path d="M102.201 72.3083L124 72.3083H141.799L122 91.9222L102.201 72.3083Z" fill="white"/>
<path d="M102.201 67.3551H124H141.799L122 86.9691L102.201 67.3551Z" fill="black"/>
<path d="M102.201 67.3551L124 67.3551H141.799L122 86.9691L102.201 67.3551Z" fill="black"/>
<rect x="0.5" y="0.5" width="242" height="105" stroke="white"/>
</svg>
