<svg width="574" height="437" viewBox="0 0 574 437" fill="none" xmlns="http://www.w3.org/2000/svg">
<path d="M346.809 252.693L571.677 158.827L573.078 343.128L346.809 252.693Z" fill="#05386B"/>
<path d="M322.24 72.191C322.24 112.022 289.951 144.311 250.12 144.311C210.289 144.311 178 112.022 178 72.191C178 32.3601 210.289 0.0708008 250.12 0.0708008C289.951 0.0708008 322.24 32.3601 322.24 72.191Z" fill="#05386B"/>
<path d="M466.481 72.1202C466.481 111.951 434.191 144.24 394.36 144.24C354.53 144.24 322.24 111.951 322.24 72.1202C322.24 32.2893 354.53 0 394.36 0C434.191 0 466.481 32.2893 466.481 72.1202Z" fill="#05386B"/>
<path d="M291.079 428.711C278.885 411.97 304.465 372.567 348.213 340.7C391.961 308.833 437.311 296.571 449.505 313.311C457 338 466.481 347 392.371 401.322C348.623 433.189 303.273 445.451 291.079 428.711Z" fill="#05386B"/>
<path d="M12.3537 416.42C-2.20105 401.686 17.2144 358.907 55.7194 320.871C94.2243 282.835 137.238 263.944 151.792 278.678C166.347 293.412 146.932 336.191 108.427 374.228C69.9218 412.264 26.9084 431.154 12.3537 416.42Z" fill="#05386B"/>
<path d="M39.3818 286.085C64.1576 260.368 74.1191 221.975 98.0288 195.452C135.296 154.11 219.653 135.81 309 144H362C438.215 144 455 146.785 455 223V332C455 348.016 442.016 361 426 361H32C18.3733 361 6.67565 352.741 1.64005 340.955C-1.71507 333.102 2.31016 324.564 8.2348 318.415L39.3818 286.085Z" fill="#05386B"/>
</svg>
